<svg width="24" height="24" viewBox="0 0 24 24" fill="none" xmlns="http://www.w3.org/2000/svg">
<path d="M21.5851 10.2203C22.4821 10.8797 22.4821 12.2199 21.5851 12.8793L20.1147 13.9601C19.62 14.3237 19.3682 14.9319 19.4609 15.5387L19.7389 17.3584C19.907 18.459 18.9592 19.4068 17.8586 19.2386L16.039 18.9606C15.4321 18.8679 14.8239 19.1198 14.4603 19.6145L13.3795 21.0848C12.7202 21.9819 11.3799 21.9819 10.7206 21.0848L9.63979 19.6145C9.27618 19.1198 8.668 18.8679 8.06111 18.9606L6.2415 19.2386C5.14088 19.4068 4.19308 18.459 4.36123 17.3584L4.63923 15.5387C4.73194 14.9319 4.48005 14.3237 3.98538 13.9601L2.51502 12.8793C1.61799 12.2199 1.61799 10.8797 2.51502 10.2203L3.98538 9.13954C4.48005 8.77594 4.73194 8.16775 4.63923 7.56087L4.36123 5.74125C4.19308 4.64064 5.14088 3.69284 6.24149 3.86098L8.06111 4.13898C8.668 4.2317 9.27618 3.97981 9.63979 3.48513L10.7206 2.01477C11.3799 1.11774 12.7202 1.11774 13.3795 2.01477L14.4603 3.48513C14.8239 3.9798 15.4321 4.2317 16.039 4.13898L17.8586 3.86098C18.9592 3.69284 19.907 4.64064 19.7389 5.74125L19.4609 7.56086C19.3682 8.16775 19.62 8.77594 20.1147 9.13954L21.5851 10.2203Z" fill="white" stroke="#EC9231" stroke-width="2.475" stroke-linecap="round" stroke-linejoin="round"/>
<path d="M12.0501 15.7414C14.3653 15.7414 16.2421 13.8646 16.2421 11.5494C16.2421 9.23424 14.3653 7.35742 12.0501 7.35742C9.73497 7.35742 7.85815 9.23424 7.85815 11.5494C7.85815 13.8646 9.73497 15.7414 12.0501 15.7414Z" fill="#F7D3AD" stroke="#EC9231" stroke-width="2.475" stroke-linecap="round" stroke-linejoin="round"/>
</svg>
