<svg width="24" height="24" viewBox="0 0 24 24" fill="none" xmlns="http://www.w3.org/2000/svg">
<path d="M1.87335 19.4637C1.97308 20.3959 2.72283 21.1457 3.65456 21.2495C4.34662 21.3267 5.0572 21.3929 5.78167 21.3929C6.50614 21.3929 7.21671 21.3267 7.90877 21.2495C8.84051 21.1457 9.59026 20.3959 9.68999 19.4637C9.76361 18.7756 9.82579 18.0691 9.82579 17.3488C9.82579 16.6285 9.76361 15.922 9.68999 15.2339C9.59026 14.3017 8.84051 13.5519 7.90877 13.4481C7.21671 13.3709 6.50614 13.3047 5.78167 13.3047C5.0572 13.3047 4.34662 13.3709 3.65456 13.4481C2.72283 13.5519 1.97308 14.3017 1.87334 15.2339C1.79972 15.922 1.73755 16.6285 1.73755 17.3488C1.73755 18.0691 1.79972 18.7756 1.87335 19.4637Z" fill="#F7D3AD" stroke="#EC9231" stroke-width="2.475"/>
<path d="M8.14166 7.86608C8.24139 8.79827 8.99114 9.54802 9.92287 9.65188C10.6149 9.72902 11.3255 9.79527 12.05 9.79527C12.7744 9.79527 13.485 9.72902 14.1771 9.65188C15.1088 9.54802 15.8586 8.79827 15.9583 7.86608C16.0319 7.17793 16.0941 6.47143 16.0941 5.75115C16.0941 5.03087 16.0319 4.32437 15.9583 3.63622C15.8586 2.70403 15.1088 1.95428 14.1771 1.85043C13.485 1.77329 12.7744 1.70703 12.05 1.70703C11.3255 1.70703 10.6149 1.77329 9.92287 1.85043C8.99114 1.95428 8.24139 2.70403 8.14166 3.63622C8.06803 4.32437 8.00586 5.03087 8.00586 5.75115C8.00586 6.47143 8.06803 7.17793 8.14166 7.86608Z" fill="#F7D3AD" stroke="#EC9231" stroke-width="2.475"/>
<path d="M14.4102 19.4637C14.5099 20.3959 15.2597 21.1457 16.1914 21.2495C16.8835 21.3267 17.5941 21.3929 18.3185 21.3929C19.043 21.3929 19.7536 21.3267 20.4456 21.2495C21.3774 21.1457 22.1271 20.3959 22.2269 19.4637C22.3005 18.7756 22.3627 18.0691 22.3627 17.3488C22.3627 16.6285 22.3005 15.922 22.2269 15.2339C22.1271 14.3017 21.3774 13.5519 20.4456 13.4481C19.7536 13.3709 19.043 13.3047 18.3185 13.3047C17.5941 13.3047 16.8835 13.3709 16.1914 13.4481C15.2597 13.5519 14.5099 14.3017 14.4102 15.2339C14.3366 15.922 14.2744 16.6285 14.2744 17.3488C14.2744 18.0691 14.3366 18.7756 14.4102 19.4637Z" fill="#F7D3AD" stroke="#EC9231" stroke-width="2.475"/>
</svg>
