<svg width="24" height="24" viewBox="0 0 24 24" fill="none" xmlns="http://www.w3.org/2000/svg">
<path d="M12.0409 21.45C18.3711 21.45 21.9319 17.8892 21.9319 11.559C21.9319 5.22873 18.3711 1.66797 12.0409 1.66797C5.71066 1.66797 2.1499 5.22873 2.1499 11.559C2.1499 17.8892 5.71066 21.45 12.0409 21.45Z" fill="white"/>
<path d="M21.9319 11.559C21.9319 17.8892 18.3711 21.45 12.0409 21.45C5.71066 21.45 2.1499 17.8892 2.1499 11.559C2.1499 5.22873 5.71066 1.66797 12.0409 1.66797" stroke="#EC9231" stroke-width="2.475" stroke-linecap="round" stroke-linejoin="round"/>
<path d="M10.4585 6.58008C8.16201 7.10126 6.89771 8.83796 6.89771 11.558C6.89771 14.8497 8.7493 16.7013 12.041 16.7013C14.8946 16.7013 16.6659 15.3098 17.0869 12.7949" stroke="#EC9231" stroke-width="2.475" stroke-linecap="round" stroke-linejoin="round"/>
<path d="M12.041 11.5577L15.4689 8.12988" stroke="#EC9231" stroke-width="2.475" stroke-linecap="round" stroke-linejoin="round"/>
<path d="M15.4674 8.13302L15.262 7.46715C14.9016 6.29838 15.2172 5.02611 16.082 4.16125L18.5928 1.65039L19.3841 4.21623L21.9499 5.0075L19.4392 7.51831C18.5743 8.3832 17.302 8.69879 16.1332 8.33834L15.4674 8.13302Z" fill="#F7D3AD" stroke="#EC9231" stroke-width="2.475" stroke-linecap="round" stroke-linejoin="round"/>
</svg>
