<svg width="235" height="48" viewBox="0 0 235 48" fill="none" xmlns="http://www.w3.org/2000/svg">
<g clip-path="url(#clip0_414_613)">
<path d="M85.4842 48.0004C84.9127 48.0157 84.3464 47.8878 83.837 47.6281C83.4011 47.3876 83.0106 47.0726 82.6831 46.6975L83.9022 45.767C84.0692 46.0484 84.3024 46.2848 84.5815 46.4556C84.8628 46.622 85.1854 46.7059 85.5121 46.6975C85.8125 46.7137 86.1071 46.6099 86.331 46.4091C86.5064 46.2372 86.6067 46.0031 86.6102 45.7576C86.6111 45.6222 86.565 45.4907 86.4799 45.3854C86.3842 45.2798 86.2709 45.1916 86.1449 45.1248C85.993 45.0453 85.8342 44.9798 85.6703 44.9294L85.112 44.7619L84.3768 44.5106C84.1421 44.4285 83.9221 44.3091 83.7254 44.157C83.5315 44.0082 83.37 43.8214 83.2508 43.608C83.134 43.3557 83.0736 43.081 83.0736 42.803C83.0736 42.525 83.134 42.2503 83.2508 41.998C83.3672 41.7537 83.5355 41.5378 83.744 41.3652C83.9708 41.1805 84.2294 41.0386 84.5071 40.9465C84.806 40.8413 85.1207 40.7878 85.4377 40.7883C85.7006 40.7855 85.963 40.8136 86.2194 40.872C86.4414 40.9165 86.6571 40.9884 86.8615 41.0861C87.051 41.1724 87.2292 41.2818 87.3919 41.4118C87.5526 41.5415 87.7049 41.6814 87.8479 41.8305L86.7498 42.6867C86.614 42.4646 86.4221 42.2823 86.1933 42.1581C85.9646 42.0339 85.7071 41.9723 85.447 41.9794C85.1771 41.9617 84.9098 42.0409 84.6932 42.2028C84.6129 42.2737 84.5489 42.3612 84.5056 42.4592C84.4622 42.5571 84.4405 42.6633 84.4419 42.7704C84.438 42.8991 84.481 43.0248 84.5629 43.1241C84.6521 43.2265 84.7593 43.3117 84.8793 43.3753C85.0271 43.4566 85.1831 43.5221 85.3446 43.5707L85.9123 43.7476C86.1542 43.822 86.3962 43.9151 86.6381 44.0081C86.8773 44.1051 87.1026 44.2334 87.3082 44.3897C87.5104 44.5461 87.6783 44.7425 87.8014 44.9666C87.9323 45.2259 87.9963 45.5138 87.9875 45.8042C87.9876 46.0796 87.9306 46.3522 87.82 46.6045C87.7101 46.8662 87.545 47.101 87.3361 47.2931C87.1128 47.5058 86.8505 47.6732 86.5637 47.7863C86.2247 47.9138 85.8649 47.9769 85.5028 47.9725" fill="white"/>
<path d="M90.5747 40.8252H94.8461V42.1001H91.9148V43.7473H94.8461V45.0222H91.9148V46.7159H94.8461V47.9908H90.5747V40.8252Z" fill="white"/>
<path d="M99.7504 44.5757C99.987 44.5799 100.223 44.5453 100.448 44.4733C100.617 44.4117 100.77 44.3132 100.895 44.1848C101.008 44.0684 101.093 43.9286 101.146 43.7753C101.195 43.6123 101.22 43.443 101.221 43.2728C101.229 43.1101 101.201 42.9476 101.14 42.7966C101.079 42.6456 100.986 42.5096 100.867 42.3981C100.548 42.1549 100.15 42.0389 99.7504 42.0724H98.9035V44.5757H99.7504ZM97.5635 47.9909V40.8254H99.8713C100.258 40.8213 100.642 40.8843 101.007 41.0115C101.319 41.1201 101.605 41.2946 101.844 41.5233C102.079 41.7399 102.26 42.0073 102.375 42.305C102.5 42.6283 102.564 42.9725 102.561 43.3194C102.56 43.7429 102.451 44.1593 102.244 44.5291C102.041 44.9301 101.715 45.256 101.314 45.4597L102.756 48.0375H101.23L100.104 45.804H98.9035V47.9909H97.5635Z" fill="white"/>
<path d="M104.72 40.8252H106.106L107.819 45.9435L109.512 40.8252H110.899L108.489 47.9908H107.139L104.72 40.8252Z" fill="white"/>
<path d="M114.817 40.8252H113.477V47.9815H114.817V40.8252Z" fill="white"/>
<path d="M121.163 47.9996C120.646 48.0073 120.133 47.9091 119.656 47.7111C119.226 47.5485 118.834 47.2994 118.504 46.9793C118.174 46.6591 117.914 46.2748 117.739 45.8499C117.559 45.4034 117.467 44.9261 117.469 44.4447C117.462 43.9489 117.56 43.4573 117.757 43.0023C117.939 42.575 118.205 42.1888 118.539 41.867C118.879 41.546 119.277 41.2932 119.712 41.1225C120.174 40.9411 120.667 40.8495 121.163 40.8526C121.816 40.8539 122.457 41.0238 123.024 41.3458C123.563 41.6611 124.012 42.1098 124.327 42.6487L123.155 43.3652C122.962 43.0139 122.687 42.714 122.354 42.4904C122.002 42.2669 121.59 42.1535 121.173 42.1647C120.854 42.1663 120.539 42.2262 120.242 42.3415C119.966 42.455 119.713 42.6191 119.498 42.8255C119.286 43.0316 119.118 43.2785 119.004 43.5513C118.769 44.1205 118.769 44.7596 119.004 45.3288C119.118 45.6009 119.286 45.8473 119.497 46.0535C119.708 46.2597 119.958 46.4214 120.233 46.5292C120.53 46.6428 120.845 46.6996 121.163 46.6967C121.611 46.709 122.052 46.5858 122.429 46.3431C122.77 46.1053 123.045 45.7852 123.229 45.4125L124.448 46.0174C124.146 46.6139 123.686 47.116 123.118 47.4691C122.829 47.6509 122.516 47.7889 122.187 47.8786C121.854 47.9756 121.51 48.0257 121.163 48.0275" fill="white"/>
<path d="M126.905 40.8252H131.167V42.1001H128.245V43.7473H131.167V45.0222H128.245V46.7159H131.167V47.9908H126.905V40.8252Z" fill="white"/>
<path d="M136.313 48.0004C135.742 48.0157 135.176 47.8878 134.666 47.6281C134.229 47.3852 133.836 47.0707 133.503 46.6975L134.731 45.767C134.896 46.0505 135.129 46.2876 135.411 46.4556C135.691 46.6235 136.014 46.7074 136.341 46.6975C136.489 46.7064 136.636 46.6854 136.775 46.6358C136.915 46.5862 137.042 46.5091 137.151 46.4091C137.326 46.2372 137.427 46.0031 137.43 45.7576C137.434 45.6233 137.392 45.4916 137.309 45.3854C137.209 45.2841 137.097 45.1964 136.974 45.1248C136.82 45.0437 136.658 44.9782 136.49 44.9294L135.932 44.7619L135.206 44.5106C134.971 44.4285 134.751 44.3091 134.555 44.157C134.361 44.0082 134.199 43.8214 134.08 43.608C133.949 43.352 133.885 43.0671 133.894 42.7797C133.895 42.5094 133.956 42.2427 134.071 41.998C134.194 41.7558 134.365 41.5407 134.573 41.3652C134.798 41.1825 135.053 41.0407 135.327 40.9465C135.626 40.8435 135.941 40.7901 136.257 40.7883C136.52 40.7855 136.783 40.8136 137.039 40.872C137.259 40.9151 137.471 40.9871 137.672 41.0861C137.863 41.1745 138.044 41.2837 138.212 41.4118C138.37 41.542 138.519 41.6816 138.668 41.8305L137.56 42.6867C137.428 42.464 137.237 42.281 137.01 42.1566C136.783 42.0323 136.526 41.9711 136.267 41.9794C135.997 41.9592 135.729 42.0386 135.513 42.2028C135.433 42.2737 135.369 42.3612 135.325 42.4592C135.282 42.5571 135.26 42.6633 135.262 42.7704C135.259 42.8974 135.298 43.0217 135.373 43.1241C135.466 43.2265 135.576 43.3116 135.699 43.3753C135.847 43.4566 136.003 43.5221 136.164 43.5707L136.723 43.7476C136.965 43.822 137.216 43.9151 137.458 44.0081C137.697 44.1051 137.922 44.2334 138.128 44.3897C138.33 44.5461 138.498 44.7425 138.621 44.9666C138.752 45.2259 138.816 45.5138 138.807 45.8042C138.807 46.0796 138.75 46.3522 138.64 46.6045C138.527 46.8643 138.362 47.0985 138.156 47.2931C137.928 47.5038 137.663 47.6709 137.374 47.7863C137.038 47.9137 136.682 47.9768 136.323 47.9725" fill="white"/>
<path d="M148.411 46.8275C148.603 46.8276 148.794 46.7994 148.979 46.7437C149.165 46.6894 149.343 46.6112 149.509 46.5111L147.983 44.9756L147.583 44.5755C147.387 44.6893 147.216 44.8411 147.08 45.0221C146.964 45.2123 146.906 45.4322 146.913 45.6549C146.91 45.8089 146.942 45.9614 147.006 46.1016C147.077 46.2433 147.175 46.3697 147.294 46.4738C147.434 46.5863 147.591 46.6743 147.759 46.7344C147.97 46.8005 148.19 46.8319 148.411 46.8275ZM150.356 47.3952C150.067 47.5825 149.754 47.7296 149.425 47.8325C149.099 47.9446 148.756 48.0012 148.411 48C147.961 48.0091 147.513 47.9366 147.089 47.786C146.763 47.664 146.463 47.4808 146.205 47.2463C145.987 47.0363 145.822 46.7781 145.721 46.4925C145.623 46.2273 145.573 45.9469 145.573 45.6642C145.565 45.2403 145.689 44.8244 145.926 44.4731C146.158 44.139 146.459 43.8595 146.81 43.6541C146.587 43.3286 146.47 42.9417 146.475 42.5467C146.474 42.3111 146.529 42.0785 146.633 41.8674C146.737 41.6572 146.883 41.4703 147.062 41.3184C147.253 41.1563 147.474 41.033 147.713 40.9554C147.979 40.8602 148.259 40.813 148.541 40.8158C148.809 40.811 149.076 40.8487 149.332 40.9275C149.547 40.9884 149.751 41.0826 149.937 41.2067C150.101 41.3223 150.246 41.4637 150.365 41.6255C150.477 41.7805 150.567 41.9494 150.635 42.128L149.332 42.5188C149.279 42.3794 149.193 42.255 149.081 42.1559C148.939 42.0492 148.765 41.9964 148.588 42.007C148.404 41.9982 148.223 42.0616 148.085 42.1838C148.022 42.2399 147.973 42.3088 147.939 42.3859C147.905 42.463 147.888 42.5464 147.89 42.6305C147.888 42.7507 147.907 42.8703 147.946 42.9841C147.986 43.1065 148.049 43.2202 148.132 43.3191C148.241 43.4658 148.362 43.6028 148.495 43.7286L149.081 44.287L150.449 45.5898C150.59 45.3908 150.711 45.1789 150.812 44.957C150.905 44.7382 150.977 44.5106 151.026 44.2777H149.816V43.012H152.357V43.6355C152.35 44.12 152.255 44.5992 152.077 45.05C151.88 45.5439 151.613 46.0076 151.286 46.4273L152.747 47.9907H150.886L150.356 47.3952Z" fill="white"/>
<path d="M161.281 42.1001H159.364V40.8252H164.547V42.1001H162.621V47.9908H161.281V42.1001Z" fill="white"/>
<path d="M170.075 46.6784C170.394 46.6849 170.711 46.6247 171.006 46.5015C171.285 46.3882 171.54 46.2241 171.76 46.0176C171.974 45.812 172.145 45.5651 172.262 45.2918C172.379 45.0117 172.439 44.7112 172.439 44.4077C172.439 44.1042 172.379 43.8038 172.262 43.5237C172.145 43.2503 171.974 43.0034 171.76 42.7978C171.54 42.5913 171.285 42.4272 171.006 42.3139C170.712 42.1878 170.395 42.1244 170.075 42.1278C169.457 42.1287 168.864 42.3688 168.419 42.7978C168.204 43.0034 168.033 43.2503 167.916 43.5237C167.799 43.8038 167.739 44.1042 167.739 44.4077C167.739 44.7112 167.799 45.0117 167.916 45.2918C168.033 45.5651 168.204 45.812 168.419 46.0176C168.638 46.2313 168.897 46.3996 169.181 46.513C169.465 46.6264 169.769 46.6826 170.075 46.6784ZM170.075 47.9998C169.583 48.0051 169.094 47.9068 168.642 47.7113C168.206 47.5334 167.809 47.2744 167.469 46.9482C167.141 46.6218 166.875 46.2367 166.688 45.8129C166.501 45.3682 166.406 44.8901 166.409 44.4077C166.404 43.9281 166.499 43.4527 166.688 43.0118C166.876 42.5854 167.141 42.1974 167.469 41.8672C167.809 41.541 168.206 41.2821 168.642 41.1041C169.094 40.9087 169.583 40.8104 170.075 40.8156C170.571 40.8104 171.062 40.9087 171.518 41.1041C171.953 41.2821 172.351 41.541 172.69 41.8672C173.025 42.1945 173.293 42.5831 173.481 43.0118C173.67 43.4527 173.765 43.9281 173.76 44.4077C173.763 44.8901 173.668 45.3682 173.481 45.8129C173.293 46.2388 173.025 46.6243 172.69 46.9482C172.351 47.2744 171.953 47.5334 171.518 47.7113C171.062 47.9067 170.571 48.005 170.075 47.9998Z" fill="white"/>
<path d="M178.935 48.0001C178.583 48.0036 178.234 47.947 177.902 47.8326C177.598 47.7295 177.319 47.5647 177.083 47.3487C176.84 47.1315 176.652 46.8606 176.534 46.5577C176.406 46.206 176.342 45.8339 176.347 45.4596V40.8066H177.687V45.5062C177.684 45.6722 177.716 45.8371 177.781 45.9901C177.833 46.1405 177.922 46.2751 178.041 46.3809C178.153 46.4946 178.286 46.5861 178.432 46.6508C178.749 46.7753 179.101 46.7753 179.418 46.6508C179.566 46.5839 179.701 46.4927 179.819 46.3809C179.936 46.2721 180.028 46.1386 180.088 45.9901C180.153 45.8371 180.185 45.6722 180.181 45.5062V40.8066H181.522V45.4596C181.528 45.8349 181.462 46.2079 181.326 46.5577C181.207 46.8582 181.023 47.1284 180.786 47.3487C180.55 47.5647 180.271 47.7295 179.967 47.8326C179.635 47.947 179.286 48.0036 178.935 48.0001Z" fill="white"/>
<path d="M186.5 44.5757C186.737 44.5799 186.973 44.5454 187.198 44.4734C187.367 44.4118 187.519 44.3132 187.645 44.1849C187.757 44.0684 187.843 43.9286 187.896 43.7754C187.945 43.6123 187.97 43.4431 187.97 43.2729C187.978 43.1102 187.951 42.9477 187.89 42.7967C187.829 42.6457 187.736 42.5097 187.617 42.3981C187.298 42.155 186.9 42.0389 186.5 42.0724H185.653V44.5757H186.5ZM184.313 47.991V40.8255H186.649C187.035 40.8206 187.42 40.8836 187.784 41.0116C188.098 41.1179 188.384 41.2928 188.622 41.5234C188.856 41.7399 189.038 42.0074 189.152 42.3051C189.278 42.6284 189.341 42.9726 189.338 43.3194C189.337 43.743 189.229 44.1594 189.022 44.5292C188.818 44.9302 188.492 45.2561 188.091 45.4598L189.534 48.0376H188.008L186.854 45.8507H185.653V48.0376L184.313 47.991Z" fill="white"/>
<path d="M193.424 40.8252H192.084V47.9815H193.424V40.8252Z" fill="white"/>
<path d="M198.691 48.0004C198.119 48.0157 197.553 47.8878 197.044 47.6281C196.608 47.3876 196.217 47.0726 195.89 46.6975L197.109 45.767C197.276 46.0484 197.509 46.2848 197.788 46.4556C198.07 46.622 198.392 46.7059 198.719 46.6975C199.019 46.7137 199.314 46.6099 199.538 46.4091C199.713 46.2372 199.814 46.0031 199.817 45.7576C199.818 45.6222 199.772 45.4907 199.687 45.3854C199.591 45.2798 199.478 45.1916 199.352 45.1248C199.2 45.0453 199.041 44.9798 198.877 44.9294L198.319 44.7619L197.584 44.5106C197.349 44.4285 197.129 44.3091 196.932 44.157C196.738 44.0082 196.577 43.8214 196.458 43.608C196.341 43.3557 196.28 43.081 196.28 42.803C196.28 42.525 196.341 42.2503 196.458 41.998C196.574 41.7537 196.742 41.5378 196.951 41.3652C197.178 41.1805 197.436 41.0386 197.714 40.9465C198.013 40.8413 198.328 40.7878 198.644 40.7883C198.907 40.7855 199.17 40.8136 199.426 40.872C199.648 40.9165 199.864 40.9884 200.068 41.0861C200.258 41.1724 200.436 41.2818 200.599 41.4118C200.759 41.5415 200.912 41.6814 201.055 41.8305L199.957 42.6867C199.821 42.4646 199.629 42.2823 199.4 42.1581C199.171 42.0339 198.914 41.9723 198.654 41.9794C198.384 41.9617 198.117 42.0409 197.9 42.2028C197.82 42.2737 197.756 42.3612 197.712 42.4592C197.669 42.5571 197.647 42.6633 197.649 42.7704C197.645 42.8991 197.688 43.0248 197.77 43.1241C197.859 43.2265 197.966 43.3117 198.086 43.3753C198.234 43.4566 198.39 43.5221 198.551 43.5707L199.119 43.7476C199.361 43.822 199.603 43.9151 199.854 44.0081C200.09 44.1073 200.311 44.2354 200.515 44.3897C200.717 44.5461 200.885 44.7425 201.008 44.9666C201.139 45.2259 201.203 45.5138 201.194 45.8042C201.194 46.0796 201.137 46.3522 201.027 46.6045C200.917 46.8662 200.752 47.101 200.543 47.2931C200.32 47.5058 200.057 47.6732 199.77 47.7863C199.431 47.9138 199.072 47.9769 198.71 47.9725" fill="white"/>
<path d="M203.781 40.8252H205.112L207.29 43.8403L209.56 40.8252H210.826V47.9908H209.486V42.9656L207.28 45.9248L205.121 43.0121V47.9908H203.781V40.8252Z" fill="white"/>
<path d="M211.245 25.2654C211.12 24.8104 210.938 24.3727 210.705 23.9626C210.459 23.5517 210.145 23.1865 209.774 22.8831C209.44 22.5981 209.089 22.3339 208.723 22.0921C208.311 21.8357 207.874 21.6206 207.42 21.45C206.852 21.2267 206.424 21.0685 206.108 20.9568L204.712 20.5194C203.679 20.2581 202.691 19.8441 201.781 19.291C201.57 19.1504 201.398 18.9591 201.281 18.7346C201.164 18.5102 201.105 18.2599 201.11 18.0068C201.104 17.7729 201.154 17.541 201.256 17.3305C201.358 17.12 201.509 16.937 201.697 16.797C202.209 16.4421 202.824 16.2685 203.446 16.3038C204.216 16.2838 204.973 16.5031 205.613 16.9315C206.253 17.3598 206.745 17.9761 207.02 18.6955L207.159 18.9932L211.003 16.7784L210.882 16.5365C210.226 15.1405 209.191 13.9571 207.894 13.1212C206.563 12.2856 205.018 11.8556 203.446 11.8835C201.681 11.8459 199.96 12.4436 198.598 13.5679C197.933 14.1203 197.404 14.8177 197.051 15.6066C196.697 16.3954 196.529 17.2547 196.56 18.1185C196.544 18.9864 196.719 19.8472 197.072 20.6404C197.417 21.3629 197.939 21.987 198.589 22.455C199.185 22.8901 199.828 23.2583 200.506 23.5531C201.262 23.8665 202.036 24.1369 202.823 24.3628C203.971 24.6371 205.081 25.0529 206.126 25.6004C206.36 25.7303 206.556 25.9171 206.698 26.1434C206.84 26.3697 206.922 26.6282 206.937 26.8948C206.952 27.1614 206.899 27.4274 206.783 27.6681C206.667 27.9088 206.493 28.1163 206.275 28.2712C205.601 28.686 204.812 28.8751 204.023 28.811C203.084 28.8883 202.146 28.6477 201.359 28.1279C200.573 27.6082 199.984 26.8393 199.687 25.9448L199.566 25.619L195.667 27.8897L195.75 28.1223C196.303 29.6587 197.351 30.9681 198.728 31.8447C200.284 32.8 202.086 33.2788 203.912 33.222C205.868 33.306 207.792 32.7072 209.356 31.5283C210.234 30.767 210.876 29.77 211.206 28.6552C211.536 27.5403 211.54 26.3544 211.217 25.2375" fill="white"/>
<path d="M75.6294 21.5805V28.5693C75.02 28.7151 74.3947 28.7839 73.7682 28.774C70.6972 28.774 69.3293 27.8899 69.3293 22.6321C69.3293 17.8674 70.4367 16.4901 74.28 16.4901C75.9234 16.4956 77.5537 16.782 79.1005 17.337L79.4541 17.4673L79.9566 12.926L79.7333 12.8515C77.8987 12.2315 75.9746 11.9171 74.0381 11.9209C67.1517 11.9209 63.9504 15.3455 63.9504 22.6972C63.9504 30.0489 67.0121 33.4456 73.8706 33.4456C75.9996 33.4774 78.1134 33.0818 80.0869 32.2823L80.2544 32.2079V21.5805H75.6294Z" fill="white"/>
<path d="M110.852 16.6386V32.7471H106.255V16.6386H100.821L100.932 12.5439H116.213L116.324 16.6386H110.852Z" fill="white"/>
<path d="M132.47 28.7833L132.368 32.7476H119.507C119.26 32.7476 119.023 32.6496 118.849 32.4751C118.674 32.3006 118.576 32.0639 118.576 31.817V13.4657C118.576 13.2189 118.674 12.9823 118.849 12.8077C119.023 12.6332 119.26 12.5352 119.507 12.5352H131.977L132.06 16.546H123.155V20.5662H130.655V24.1676H123.155V28.8205L132.47 28.7833Z" fill="white"/>
<path d="M12.1443 24.2235C13.7155 22.6444 14.9502 20.7631 15.7739 18.6934C16.5977 16.6237 16.9932 14.4085 16.9368 12.1816H12.3769C12.3769 19.8776 5.39746 23.2371 5.39746 23.2371L12.8422 33.1107H18.8073L12.1443 24.2235Z" fill="white"/>
<path d="M4.867 12.1816H0V33.1107H4.867V12.1816Z" fill="white"/>
<path d="M50.1868 12.2655C49.2315 11.9902 48.2113 12.0464 47.292 12.4249C46.3728 12.8034 45.6088 13.4819 45.1243 14.35L40.6389 22.0553L36.1627 14.3035C35.6732 13.4617 34.9214 12.8033 34.0223 12.4291C33.1232 12.0549 32.1264 11.9855 31.1841 12.2313C30.2418 12.4772 29.406 13.0248 28.8044 13.7906C28.2027 14.5563 27.8684 15.498 27.8525 16.4717V33.2224H32.6172V17.3093L37.0189 24.754C37.3974 25.4022 37.9418 25.9379 38.596 26.3059C39.2503 26.6739 39.9907 26.861 40.7413 26.8478C41.4903 26.859 42.2291 26.6722 42.8827 26.3061C43.5364 25.9401 44.0818 25.4078 44.4636 24.7633L48.9212 17.2069V33.2224H53.5741V16.5927C53.5899 15.5996 53.268 14.6306 52.661 13.8444C52.0541 13.0582 51.1981 12.5015 50.2333 12.2655" fill="white"/>
<path d="M25.4239 12.1816H20.5569V33.1107H25.4239V12.1816Z" fill="white"/>
<path d="M87.6804 33.2223H82.6831L88.6203 14.778C88.8793 13.985 89.3824 13.2942 90.0576 12.8044C90.7329 12.3146 91.5457 12.0508 92.3799 12.0508C93.2141 12.0508 94.0269 12.3146 94.7022 12.8044C95.3774 13.2942 95.8805 13.985 96.1395 14.778L102.086 33.2223H96.9863L92.1752 17.2161L87.6804 33.2223Z" fill="white"/>
<path d="M166.083 33.222H161.086L167.032 14.7776C167.289 13.9834 167.79 13.2909 168.465 12.7997C169.14 12.3086 169.953 12.0439 170.787 12.0439C171.622 12.0439 172.435 12.3086 173.109 12.7997C173.784 13.2909 174.286 13.9834 174.542 14.7776L180.489 33.222H175.389L170.578 17.2157L166.083 33.222Z" fill="white"/>
<path d="M195.043 12.4883H190.455L187.226 20.6589L183.82 12.4883H178.935L184.555 25.6934V33.1102H189.422V25.8051L195.043 12.4883Z" fill="white"/>
<path d="M156.768 12.5445L154.544 28.5693L149.677 12.5724H145.954L141.097 28.5693L138.938 12.5352H134.536L137.179 30.5608C137.434 31.3339 137.927 32.0069 138.587 32.4838C139.247 32.9608 140.04 33.2176 140.855 33.2176C141.669 33.2176 142.462 32.9608 143.122 32.4838C143.782 32.0069 144.275 31.3339 144.53 30.5608L147.853 20.2591L151.175 30.5608C151.428 31.3351 151.919 32.0097 152.578 32.488C153.238 32.9663 154.031 33.2239 154.846 33.2239C155.661 33.2239 156.454 32.9663 157.114 32.488C157.773 32.0097 158.264 31.3351 158.517 30.5608L161.16 12.5352L156.768 12.5445Z" fill="white"/>
<path d="M225.585 0H221.062V5.00659H225.585V0Z" fill="#F89921"/>
<path d="M213.571 5.56543L212.175 9.84616L216.968 11.3909L218.364 7.11021L213.571 5.56543Z" fill="#F89921"/>
<path d="M234.584 9.57611L233.179 5.30469L222.421 8.7851C222.107 8.88785 221.823 9.06323 221.59 9.29694C221.357 9.53065 221.183 9.8161 221.081 10.13C220.979 10.4439 220.953 10.7773 221.005 11.1031C221.057 11.429 221.185 11.738 221.379 12.005L228.098 21.2085L231.755 18.5656L226.999 12.0515L234.584 9.57611Z" fill="#F89921"/>
<path d="M218.485 14.1169C218.474 14.1126 218.463 14.1104 218.452 14.1104C218.441 14.1104 218.43 14.1126 218.42 14.1169L214.744 19.1421L218.401 21.7943L221.276 17.8579L218.55 14.1355C218.529 14.1277 218.506 14.1277 218.485 14.1355" fill="#F89921"/>
</g>
<defs>
<clipPath id="clip0_414_613">
<rect width="234.584" height="48" fill="white"/>
</clipPath>
</defs>
</svg>
