<svg width="615" height="598" viewBox="0 0 615 598" fill="none" xmlns="http://www.w3.org/2000/svg">
<g clip-path="url(#clip0_545_2259)">
<path d="M367 0H243V138H367V0Z" fill="white" fill-opacity="0.1"/>
<path d="M38.3459 153L0 269.837L131.654 312L170 195.163L38.3459 153Z" fill="white" fill-opacity="0.1"/>
<path d="M615 262.831L576.37 146L280.634 241.196C272.016 244.006 264.186 248.803 257.785 255.196C251.383 261.588 246.591 269.396 243.797 277.981C241.004 286.566 240.29 295.687 241.712 304.599C243.134 313.511 246.653 321.963 251.982 329.265L436.689 581L537.228 508.712L406.501 330.538L615 262.831Z" fill="white" fill-opacity="0.1"/>
<path d="M172.504 387.181C172.222 387.061 171.918 387 171.612 387C171.305 387 171.002 387.061 170.72 387.181L70 525.171L170.209 598L249 489.907L174.289 387.692C173.714 387.476 173.08 387.476 172.504 387.692" fill="white" fill-opacity="0.1"/>
</g>
<defs>
<clipPath id="clip0_545_2259">
<rect width="615" height="598" fill="white"/>
</clipPath>
</defs>
</svg>
